<?xml version="1.0" encoding="UTF-8" standalone="no"?>
<!-- Created with Inkscape (http://www.inkscape.org/) -->

<svg
   xmlns:dc="http://purl.org/dc/elements/1.1/"
   xmlns:cc="http://creativecommons.org/ns#"
   xmlns:rdf="http://www.w3.org/1999/02/22-rdf-syntax-ns#"
   xmlns:svg="http://www.w3.org/2000/svg"
   xmlns="http://www.w3.org/2000/svg"
   xmlns:sodipodi="http://sodipodi.sourceforge.net/DTD/sodipodi-0.dtd"
   xmlns:inkscape="http://www.inkscape.org/namespaces/inkscape"
   width="32mm"
   height="32mm"
   viewBox="0 0 32 32"
   version="1.1"
   id="svg418501"
   inkscape:version="0.92.1 r15371"
   sodipodi:docname="centripio-o.svg">
  <defs
     id="defs418495">
    <linearGradient
       x1="0"
       y1="0"
       x2="1"
       y2="0"
       gradientUnits="userSpaceOnUse"
       gradientTransform="matrix(5.1115832,-26.196863,5.1115832,26.196863,666.74707,822.30762)"
       spreadMethod="pad"
       id="linearGradient416267">
      <stop
         style="stop-opacity:1;stop-color:#fbed5d"
         offset="0"
         id="stop416263" />
      <stop
         style="stop-opacity:1;stop-color:#fcf07a"
         offset="1"
         id="stop416265" />
    </linearGradient>
    <clipPath
       clipPathUnits="userSpaceOnUse"
       id="clipPath416245">
      <path
         d="M 0,960.37 H 960.001 V 0 H 0 Z"
         id="path416243"
         inkscape:connector-curvature="0" />
    </clipPath>
    <linearGradient
       x1="0"
       y1="0"
       x2="1"
       y2="0"
       gradientUnits="userSpaceOnUse"
       gradientTransform="matrix(9.5237074,-24.761639,9.5237074,24.761639,662.80566,825.99512)"
       spreadMethod="pad"
       id="linearGradient416235">
      <stop
         style="stop-opacity:1;stop-color:#fbec47"
         offset="0"
         id="stop416231" />
      <stop
         style="stop-opacity:1;stop-color:#fbed5a"
         offset="1"
         id="stop416233" />
    </linearGradient>
    <clipPath
       clipPathUnits="userSpaceOnUse"
       id="clipPath416197">
      <path
         d="M 0,960.37 H 960.001 V 0 H 0 Z"
         id="path416195"
         inkscape:connector-curvature="0" />
    </clipPath>
    <linearGradient
       x1="0"
       y1="0"
       x2="1"
       y2="0"
       gradientUnits="userSpaceOnUse"
       gradientTransform="matrix(23.712479,-18.585457,23.712479,18.585457,618.89941,833.15137)"
       spreadMethod="pad"
       id="linearGradient416187">
      <stop
         style="stop-opacity:1;stop-color:#f68b53"
         offset="0"
         id="stop416183" />
      <stop
         style="stop-opacity:1;stop-color:#f68b53"
         offset="1"
         id="stop416185" />
    </linearGradient>
    <clipPath
       clipPathUnits="userSpaceOnUse"
       id="clipPath416161">
      <path
         d="M 0,960.37 H 960.001 V 0 H 0 Z"
         id="path416159"
         inkscape:connector-curvature="0" />
    </clipPath>
    <linearGradient
       x1="0"
       y1="0"
       x2="1"
       y2="0"
       gradientUnits="userSpaceOnUse"
       gradientTransform="matrix(8.2769861,-16.553972,8.2769861,16.553972,651.62598,789.54199)"
       spreadMethod="pad"
       id="linearGradient416151">
      <stop
         style="stop-opacity:1;stop-color:#fcee68"
         offset="0"
         id="stop416147" />
      <stop
         style="stop-opacity:1;stop-color:#fbec3e"
         offset="1"
         id="stop416149" />
    </linearGradient>
    <clipPath
       clipPathUnits="userSpaceOnUse"
       id="clipPath416065">
      <path
         d="M 0,960.37 H 960.001 V 0 H 0 Z"
         id="path416063"
         inkscape:connector-curvature="0" />
    </clipPath>
    <linearGradient
       x1="0"
       y1="0"
       x2="1"
       y2="0"
       gradientUnits="userSpaceOnUse"
       gradientTransform="matrix(11.485362,-25.523029,11.485362,25.523029,646.23535,798.80762)"
       spreadMethod="pad"
       id="linearGradient416055">
      <stop
         style="stop-opacity:1;stop-color:#fbec4c"
         offset="0"
         id="stop416051" />
      <stop
         style="stop-opacity:1;stop-color:#fbed50"
         offset="1"
         id="stop416053" />
    </linearGradient>
    <clipPath
       clipPathUnits="userSpaceOnUse"
       id="clipPath416021">
      <path
         d="M 0,960.37 H 960.001 V 0 H 0 Z"
         id="path416019"
         inkscape:connector-curvature="0" />
    </clipPath>
    <linearGradient
       x1="0"
       y1="0"
       x2="1"
       y2="0"
       gradientUnits="userSpaceOnUse"
       gradientTransform="matrix(12.857142,-13.571429,12.857142,13.571429,642.43848,826.65137)"
       spreadMethod="pad"
       id="linearGradient416011">
      <stop
         style="stop-opacity:1;stop-color:#f5854b"
         offset="0"
         id="stop416007" />
      <stop
         style="stop-opacity:1;stop-color:#f57f42"
         offset="1"
         id="stop416009" />
    </linearGradient>
    <clipPath
       clipPathUnits="userSpaceOnUse"
       id="clipPath415989">
      <path
         d="M 0,960.37 H 960.001 V 0 H 0 Z"
         id="path415987"
         inkscape:connector-curvature="0" />
    </clipPath>
    <linearGradient
       x1="0"
       y1="0"
       x2="1"
       y2="0"
       gradientUnits="userSpaceOnUse"
       gradientTransform="matrix(18.475582,-12.104693,18.475582,12.104693,636.86816,827.29199)"
       spreadMethod="pad"
       id="linearGradient415979">
      <stop
         style="stop-opacity:1;stop-color:#f7925e"
         offset="0"
         id="stop415975" />
      <stop
         style="stop-opacity:1;stop-color:#f5844a"
         offset="1"
         id="stop415977" />
    </linearGradient>
    <clipPath
       clipPathUnits="userSpaceOnUse"
       id="clipPath415949">
      <path
         d="M 0,960.37 H 960.001 V 0 H 0 Z"
         id="path415947"
         inkscape:connector-curvature="0" />
    </clipPath>
    <linearGradient
       x1="0"
       y1="0"
       x2="1"
       y2="0"
       gradientUnits="userSpaceOnUse"
       gradientTransform="matrix(33.749897,-12.09902,33.749897,12.09902,622.93066,819.26074)"
       spreadMethod="pad"
       id="linearGradient415939">
      <stop
         style="stop-opacity:1;stop-color:#fbed5f"
         offset="0"
         id="stop415935" />
      <stop
         style="stop-opacity:1;stop-color:#a55185"
         offset="1"
         id="stop415937" />
    </linearGradient>
  </defs>
  <sodipodi:namedview
     id="base"
     pagecolor="#ffffff"
     bordercolor="#666666"
     borderopacity="1.0"
     inkscape:pageopacity="0.0"
     inkscape:pageshadow="2"
     inkscape:zoom="1.979899"
     inkscape:cx="78.914544"
     inkscape:cy="102.64934"
     inkscape:document-units="mm"
     inkscape:current-layer="layer1"
     showgrid="false"
     inkscape:window-width="1920"
     inkscape:window-height="976"
     inkscape:window-x="-8"
     inkscape:window-y="-8"
     inkscape:window-maximized="1"
     fit-margin-top="0"
     fit-margin-left="0"
     fit-margin-right="0"
     fit-margin-bottom="0" />
  <metadata
     id="metadata418498">
    <rdf:RDF>
      <cc:Work
         rdf:about="">
        <dc:format>image/svg+xml</dc:format>
        <dc:type
           rdf:resource="http://purl.org/dc/dcmitype/StillImage" />
        <dc:title></dc:title>
      </cc:Work>
    </rdf:RDF>
  </metadata>
  <g
     inkscape:label="Capa 1"
     inkscape:groupmode="layer"
     id="layer1"
     transform="translate(-71.20453,-129.74234)">
    <g
       id="g415911"
       transform="matrix(0.35277777,0,0,-0.35277777,92.056045,152.17978)"
       inkscape:export-xdpi="381.66052"
       inkscape:export-ydpi="381.66052">
      <path
         d="m 0,0 14.432,9.188 c 0.795,1.286 1.528,2.601 2.129,3.987 0.64,1.472 1.117,2.987 1.513,4.525 l -20.601,0.891 z"
         style="fill:#221447;fill-opacity:1;fill-rule:nonzero;stroke:none"
         id="path415913"
         inkscape:connector-curvature="0" />
    </g>
    <g
       id="g415915"
       transform="matrix(0.35277777,0,0,-0.35277777,85.366357,133.41123)"
       inkscape:export-xdpi="381.66052"
       inkscape:export-ydpi="381.66052">
      <path
         d="M 0,0 -1.01,3.807 C -1.327,3.762 -1.65,3.736 -1.963,3.682 L -1.266,0 Z"
         style="fill:#ffde17;fill-opacity:1;fill-rule:nonzero;stroke:none"
         id="path415917"
         inkscape:connector-curvature="0" />
    </g>
    <g
       id="g415919"
       transform="matrix(0.35277777,0,0,-0.35277777,99.857086,139.39744)"
       inkscape:export-xdpi="381.66052"
       inkscape:export-ydpi="381.66052">
      <path
         d="M 0,0 4.424,10.257 -5.689,6.412 Z"
         style="fill:#662c91;fill-opacity:1;fill-rule:nonzero;stroke:none"
         id="path415921"
         inkscape:connector-curvature="0" />
    </g>
    <g
       transform="matrix(0.35277777,0,0,-0.35277777,-145.52567,424.80912)"
       id="g415923"
       inkscape:export-xdpi="381.66052"
       inkscape:export-ydpi="381.66052">
      <g
         id="g415925">
        <g
           id="g415931">
          <g
             id="g415933">
            <path
               d="m 621.685,818.803 5.168,-1.879 v 1.879 z"
               style="fill:url(#linearGradient415939);stroke:none"
               id="path415941"
               inkscape:connector-curvature="0" />
          </g>
        </g>
      </g>
    </g>
    <g
       transform="matrix(0.35277777,0,0,-0.35277777,-145.52567,424.80912)"
       id="g415943"
       inkscape:export-xdpi="381.66052"
       inkscape:export-ydpi="381.66052">
      <g
         id="g415945"
         clip-path="url(#clipPath415949)">
        <g
           id="g415951"
           transform="translate(652.5342,829.6914)">
          <path
             d="m 0,0 c -2.221,-0.383 -4.364,-0.966 -6.424,-1.756 -3.967,-1.523 -7.498,-3.791 -10.594,-6.783 l -0.615,-0.91 18.33,5.767 z"
             style="fill:#ffde17;fill-opacity:1;fill-rule:nonzero;stroke:none"
             id="path415953"
             inkscape:connector-curvature="0" />
        </g>
        <g
           id="g415955"
           transform="translate(687.3682,809.9854)">
          <path
             d="M 0,0 1.559,2.875 C 1.18,3.585 0.761,4.276 0.324,4.96 Z"
             style="fill:#662c91;fill-opacity:1;fill-rule:nonzero;stroke:none"
             id="path415957"
             inkscape:connector-curvature="0" />
        </g>
        <g
           id="g415959"
           transform="translate(691.8604,804.8076)">
          <path
             d="M 0,0 C -0.414,1.976 -1.01,3.899 -1.811,5.767 -2.146,6.548 -2.535,7.303 -2.934,8.053 L -4.492,5.178 Z"
             style="fill:#bf1e2d;fill-opacity:1;fill-rule:nonzero;stroke:none"
             id="path415961"
             inkscape:connector-curvature="0" />
        </g>
      </g>
    </g>
    <g
       transform="matrix(0.35277777,0,0,-0.35277777,-145.52567,424.80912)"
       id="g415963"
       inkscape:export-xdpi="381.66052"
       inkscape:export-ydpi="381.66052">
      <g
         id="g415965">
        <g
           id="g415971">
          <g
             id="g415973">
            <path
               d="m 634.901,820.242 8.219,-6.412 10.112,12.18 z"
               style="fill:url(#linearGradient415979);stroke:none"
               id="path415981"
               inkscape:connector-curvature="0" />
          </g>
        </g>
      </g>
    </g>
    <g
       transform="matrix(0.35277777,0,0,-0.35277777,-145.52567,424.80912)"
       id="g415983"
       inkscape:export-xdpi="381.66052"
       inkscape:export-ydpi="381.66052">
      <g
         id="g415985"
         clip-path="url(#clipPath415989)">
        <g
           id="g415991"
           transform="translate(643.1201,813.8301)">
          <path
             d="m 0,0 3.973,-10.939 c 0.461,2.03 1.244,3.786 2.359,5.259 z"
             style="fill:#e02826;fill-opacity:1;fill-rule:nonzero;stroke:none"
             id="path415993"
             inkscape:connector-curvature="0" />
        </g>
      </g>
    </g>
    <g
       transform="matrix(0.35277777,0,0,-0.35277777,-145.52567,424.80912)"
       id="g415995"
       inkscape:export-xdpi="381.66052"
       inkscape:export-ydpi="381.66052">
      <g
         id="g415997">
        <g
           id="g416003">
          <g
             id="g416005">
            <path
               d="m 653.232,826.01 -10.112,-12.18 11.377,12.18 z"
               style="fill:url(#linearGradient416011);stroke:none"
               id="path416013"
               inkscape:connector-curvature="0" />
          </g>
        </g>
      </g>
    </g>
    <g
       transform="matrix(0.35277777,0,0,-0.35277777,-145.52567,424.80912)"
       id="g416015"
       inkscape:export-xdpi="381.66052"
       inkscape:export-ydpi="381.66052">
      <g
         id="g416017"
         clip-path="url(#clipPath416021)">
        <g
           id="g416023"
           transform="translate(617.3838,786.416)">
          <path
             d="M 0,0 H 6.299 L 4.187,4.518 Z"
             style="fill:#fcdc00;fill-opacity:1;fill-rule:nonzero;stroke:none"
             id="path416025"
             inkscape:connector-curvature="0" />
        </g>
        <g
           id="g416027"
           transform="translate(670.9326,791.3984)">
          <path
             d="m 0,0 20.602,-0.891 c 0.642,2.5 1.005,5.074 1.005,7.741 0,1.541 -0.142,3.039 -0.351,4.52 l -4.82,7.217 z"
             style="fill:#662c91;fill-opacity:1;fill-rule:nonzero;stroke:none"
             id="path416029"
             inkscape:connector-curvature="0" />
        </g>
        <g
           id="g416031"
           transform="translate(692.1885,802.7686)">
          <path
             d="M 0,0 C -0.098,0.683 -0.187,1.368 -0.328,2.039 L -4.82,7.217 Z"
             style="fill:#bf1e2d;fill-opacity:1;fill-rule:nonzero;stroke:none"
             id="path416033"
             inkscape:connector-curvature="0" />
        </g>
        <g
           id="g416035"
           transform="translate(665.667,761.832)">
          <path
             d="M 0,0 V -9.412 L 5.408,1.923 Z"
             style="fill:#e71e76;fill-opacity:1;fill-rule:nonzero;stroke:none"
             id="path416037"
             inkscape:connector-curvature="0" />
        </g>
      </g>
    </g>
    <g
       transform="matrix(0.35277777,0,0,-0.35277777,-145.52567,424.80912)"
       id="g416039"
       inkscape:export-xdpi="381.66052"
       inkscape:export-ydpi="381.66052">
      <g
         id="g416041">
        <g
           id="g416047">
          <g
             id="g416049">
            <path
               d="m 653.232,776.013 2.802,8.206 c -2.043,0.418 -3.763,1.32 -5.207,2.635 v 0 z"
               style="fill:url(#linearGradient416055);stroke:none"
               id="path416057"
               inkscape:connector-curvature="0" />
          </g>
        </g>
      </g>
    </g>
    <g
       transform="matrix(0.35277777,0,0,-0.35277777,-145.52567,424.80912)"
       id="g416059"
       inkscape:export-xdpi="381.66052"
       inkscape:export-ydpi="381.66052">
      <g
         id="g416061"
         clip-path="url(#clipPath416065)">
        <g
           id="g416067"
           transform="translate(634.9014,820.2422)">
          <path
             d="m 0,0 -0.416,-0.165 c -2.727,-2.837 -4.859,-5.972 -6.33,-9.444 -1.049,-2.475 -1.723,-5.067 -2.1,-7.751 l 13.903,-0.587 z"
             style="fill:#ffcd04;fill-opacity:1;fill-rule:nonzero;stroke:none"
             id="path416069"
             inkscape:connector-curvature="0" />
        </g>
        <g
           id="g416071"
           transform="translate(634.9014,820.2422)">
          <path
             d="M 0,0 5.057,-17.947 8.219,-6.412 Z"
             style="fill:#f5aa1b;fill-opacity:1;fill-rule:nonzero;stroke:none"
             id="path416073"
             inkscape:connector-curvature="0" />
        </g>
        <g
           id="g416075"
           transform="translate(647.0928,802.8906)">
          <path
             d="M 0,0 -3.973,10.939 -7.135,-0.596 -0.262,-1.178 C -0.199,-0.766 -0.089,-0.393 0,0"
             style="fill:#ec7623;fill-opacity:1;fill-rule:nonzero;stroke:none"
             id="path416077"
             inkscape:connector-curvature="0" />
        </g>
        <g
           id="g416079"
           transform="translate(649.874,787.7295)">
          <path
             d="m 0,0 c -2.213,2.548 -3.318,6.054 -3.318,10.519 0,1.232 0.105,2.377 0.275,3.464 L -9.916,14.565 3.357,-11.716 0.953,-0.876 C 0.635,-0.587 0.289,-0.333 0,0"
             style="fill:#ed1c24;fill-opacity:1;fill-rule:nonzero;stroke:none"
             id="path416081"
             inkscape:connector-curvature="0" />
        </g>
        <g
           id="g416083"
           transform="translate(626.0557,802.8818)">
          <path
             d="m 0,0 c -0.215,-1.515 -0.359,-3.051 -0.359,-4.634 0,-3.888 0.701,-7.587 2.033,-11.111 l 12.228,15.158 z"
             style="fill:#fcdc00;fill-opacity:1;fill-rule:nonzero;stroke:none"
             id="path416085"
             inkscape:connector-curvature="0" />
        </g>
        <g
           id="g416087"
           transform="translate(626.7949,776.8574)">
          <path
             d="M 0,0 C -0.173,0.409 -0.302,0.83 -0.457,1.243 L -5.294,-4.752 3.642,-6.263 C 2.188,-4.316 0.956,-2.239 0,0"
             style="fill:#662c91;fill-opacity:1;fill-rule:nonzero;stroke:none"
             id="path416089"
             inkscape:connector-curvature="0" />
        </g>
        <g
           id="g416091"
           transform="translate(631.8271,779.6309)">
          <path
             d="M 0,0 21.404,-3.617 8.131,22.664 -4.098,7.506 C -3.943,7.093 -3.814,6.672 -3.641,6.263 -2.688,4.023 -1.453,1.946 0,0"
             style="fill:#ee3e81;fill-opacity:1;fill-rule:nonzero;stroke:none"
             id="path416093"
             inkscape:connector-curvature="0" />
        </g>
        <g
           id="g416095"
           transform="translate(631.8271,779.6309)">
          <path
             d="m 0,0 c 1.07,-1.434 2.246,-2.807 3.588,-4.08 3.16,-3.08 6.746,-5.41 10.755,-6.99 0.29,-0.116 0.593,-0.196 0.886,-0.301 l 6.175,7.754 z"
             style="fill:#3faf49;fill-opacity:1;fill-rule:nonzero;stroke:none"
             id="path416097"
             inkscape:connector-curvature="0" />
        </g>
        <g
           id="g416099"
           transform="translate(670.2998,772.166)">
          <path
             d="m 0,0 1.459,-3.629 c 0.023,0.008 0.047,0.015 0.07,0.024 0.787,0.309 1.55,0.673 2.309,1.042 L 3.16,0.642 Z"
             style="fill:#00ad9a;fill-opacity:1;fill-rule:nonzero;stroke:none"
             id="path416101"
             inkscape:connector-curvature="0" />
        </g>
        <g
           id="g416103"
           transform="translate(659.5654,830.2256)">
          <path
             d="m 0,0 c -0.172,0.003 -0.336,0.021 -0.508,0.021 -1.914,0 -3.762,-0.166 -5.57,-0.43 l 1.01,-3.807 z"
             style="fill:#ee3e81;fill-opacity:1;fill-rule:nonzero;stroke:none"
             id="path416105"
             inkscape:connector-curvature="0" />
        </g>
        <g
           id="g416107"
           transform="translate(682.1221,836.0137)">
          <path
             d="m 0,0 h -8.885 l 1.602,-5.342 z"
             style="fill:#ee3e81;fill-opacity:1;fill-rule:nonzero;stroke:none"
             id="path416109"
             inkscape:connector-curvature="0" />
        </g>
        <g
           id="g416111"
           transform="translate(697.501,798.6895)">
          <path
             d="m 0,0 v -7.43 l 4.775,3.496 z"
             style="fill:#ed1c24;fill-opacity:1;fill-rule:nonzero;stroke:none"
             id="path416113"
             inkscape:connector-curvature="0" />
        </g>
        <g
           id="g416115"
           transform="translate(647.0557,768.2598)">
          <path
             d="M 0,0 C 2.643,-0.957 5.4,-1.594 8.287,-1.879 L 6.176,7.754 Z"
             style="fill:#007f40;fill-opacity:1;fill-rule:nonzero;stroke:none"
             id="path416117"
             inkscape:connector-curvature="0" />
        </g>
        <g
           id="g416119"
           transform="translate(635.0928,760.4609)">
          <path
             d="m 0,0 18.818,-14.775 h 0.666 L 15.803,5.127 Z"
             style="fill:#d7df23;fill-opacity:1;fill-rule:nonzero;stroke:none"
             id="path416121"
             inkscape:connector-curvature="0" />
        </g>
        <g
           id="g416123"
           transform="translate(655.3428,766.3809)">
          <path
             d="M 0,0 0.418,-1.904 3.66,-0.191 C 2.418,-0.189 1.201,-0.117 0,0"
             style="fill:#1996d4;fill-opacity:1;fill-rule:nonzero;stroke:none"
             id="path416125"
             inkscape:connector-curvature="0" />
        </g>
        <g
           id="g416127"
           transform="translate(653.2314,776.0137)">
          <path
             d="m 0,0 2.111,-9.633 c 1.202,-0.117 2.418,-0.189 3.66,-0.191 l 11.297,5.976 z"
             style="fill:#1996d4;fill-opacity:1;fill-rule:nonzero;stroke:none"
             id="path416129"
             inkscape:connector-curvature="0" />
        </g>
        <g
           id="g416131"
           transform="translate(659.0029,766.1895)">
          <path
             d="m 0,0 c 0.018,0 0.037,-0.002 0.055,-0.002 4.478,0 8.711,0.786 12.701,2.35 l -1.459,3.629 z"
             style="fill:#82bb41;fill-opacity:1;fill-rule:nonzero;stroke:none"
             id="path416133"
             inkscape:connector-curvature="0" />
        </g>
      </g>
    </g>
    <g
       transform="matrix(0.35277777,0,0,-0.35277777,-145.52567,424.80912)"
       id="g416135"
       inkscape:export-xdpi="381.66052"
       inkscape:export-ydpi="381.66052">
      <g
         id="g416137">
        <g
           id="g416143">
          <g
             id="g416145">
            <path
               d="m 653.232,776.013 6.363,7.94 c -0.184,-0.006 -0.348,-0.046 -0.538,-0.046 v 0 c -1.076,0 -2.076,0.12 -3.023,0.312 v 0 z"
               style="fill:url(#linearGradient416151);stroke:none"
               id="path416153"
               inkscape:connector-curvature="0" />
          </g>
        </g>
      </g>
    </g>
    <g
       transform="matrix(0.35277777,0,0,-0.35277777,-145.52567,424.80912)"
       id="g416155"
       inkscape:export-xdpi="381.66052"
       inkscape:export-ydpi="381.66052">
      <g
         id="g416157"
         clip-path="url(#clipPath416161)">
        <g
           id="g416163"
           transform="translate(662.6309,784.3867)">
          <path
             d="M 0,0 C -0.948,-0.242 -1.954,-0.398 -3.036,-0.434 L -9.399,-8.373 7.669,-12.221 Z"
             style="fill:#44b5e3;fill-opacity:1;fill-rule:nonzero;stroke:none"
             id="path416165"
             inkscape:connector-curvature="0" />
        </g>
        <g
           id="g416167"
           transform="translate(670.9326,791.3984)">
          <path
             d="M 0,0 -0.523,0.133 C -0.595,-0.053 -0.678,-0.229 -0.754,-0.408 -1.273,-1.611 -1.895,-2.729 -2.72,-3.669 -4.205,-5.366 -6.088,-6.443 -8.302,-7.012 l 7.669,-12.22 3.16,0.641 z"
             style="fill:#467bbe;fill-opacity:1;fill-rule:nonzero;stroke:none"
             id="path416169"
             inkscape:connector-curvature="0" />
        </g>
      </g>
    </g>
    <g
       transform="matrix(0.35277777,0,0,-0.35277777,-145.52567,424.80912)"
       id="g416171"
       inkscape:export-xdpi="381.66052"
       inkscape:export-ydpi="381.66052">
      <g
         id="g416173">
        <g
           id="g416179">
          <g
             id="g416181">
            <path
               d="m 626.689,820.611 5.168,1.132 v 7.806 z"
               style="fill:url(#linearGradient416187);stroke:none"
               id="path416189"
               inkscape:connector-curvature="0" />
          </g>
        </g>
      </g>
    </g>
    <g
       transform="matrix(0.35277777,0,0,-0.35277777,-145.52567,424.80912)"
       id="g416191"
       inkscape:export-xdpi="381.66052"
       inkscape:export-ydpi="381.66052">
      <g
         id="g416193"
         clip-path="url(#clipPath416197)">
        <g
           id="g416199"
           transform="translate(674.1377,769.6035)">
          <path
             d="M 0,0 C 1.209,0.587 2.391,1.23 3.525,1.968 L -0.678,3.204 Z"
             style="fill:#00ad9a;fill-opacity:1;fill-rule:nonzero;stroke:none"
             id="path416201"
             inkscape:connector-curvature="0" />
        </g>
        <g
           id="g416203"
           transform="translate(677.6631,771.5713)">
          <path
             d="m 0,0 c 1.771,1.148 3.453,2.471 5.039,3.979 2.055,1.981 3.762,4.141 5.19,6.446 L -4.203,1.236 Z"
             style="fill:#312e7f;fill-opacity:1;fill-rule:nonzero;stroke:none"
             id="path416205"
             inkscape:connector-curvature="0" />
        </g>
        <g
           id="g416207"
           transform="translate(654.4971,826.0098)">
          <path
             d="m 0,0 -11.377,-12.18 25.914,3.846 z"
             style="fill:#ce2043;fill-opacity:1;fill-rule:nonzero;stroke:none"
             id="path416209"
             inkscape:connector-curvature="0" />
        </g>
        <g
           id="g416211"
           transform="translate(649.9033,808.7949)">
          <path
             d="m 0,0 c 2.232,2.567 5.283,3.852 9.154,3.852 2.533,0 4.684,-0.616 6.526,-1.735 l 3.451,6.764 -25.914,-3.846 6.332,-5.68 C -0.291,-0.437 -0.172,-0.197 0,0"
             style="fill:#b3292d;fill-opacity:1;fill-rule:nonzero;stroke:none"
             id="path416213"
             inkscape:connector-curvature="0" />
        </g>
        <g
           id="g416215"
           transform="translate(669.0342,817.6758)">
          <path
             d="M 0,0 3.51,10.008 C 3.318,10.086 3.137,10.184 2.943,10.26 -0.9,11.743 -5.041,12.493 -9.469,12.55 l -5.068,-4.216 z"
             style="fill:#e71e76;fill-opacity:1;fill-rule:nonzero;stroke:none"
             id="path416217"
             inkscape:connector-curvature="0" />
        </g>
      </g>
    </g>
    <g
       transform="matrix(0.35277777,0,0,-0.35277777,-145.52567,424.80912)"
       id="g416219"
       inkscape:export-xdpi="381.66052"
       inkscape:export-ydpi="381.66052">
      <g
         id="g416221">
        <g
           id="g416227">
          <g
             id="g416229">
            <path
               d="m 665.583,810.912 c 0.855,-0.52 1.653,-1.134 2.357,-1.892 v 0 l 1.094,8.656 z"
               style="fill:url(#linearGradient416235);stroke:none"
               id="path416237"
               inkscape:connector-curvature="0" />
          </g>
        </g>
      </g>
    </g>
    <g
       transform="matrix(0.35277777,0,0,-0.35277777,-145.52567,424.80912)"
       id="g416239"
       inkscape:export-xdpi="381.66052"
       inkscape:export-ydpi="381.66052">
      <g
         id="g416241"
         clip-path="url(#clipPath416245)">
        <g
           id="g416247"
           transform="translate(670.4092,791.5312)">
          <path
             d="M 0,0 0.523,-0.133 0.426,1.229 C 0.304,0.802 0.152,0.399 0,0"
             style="fill:#803e95;fill-opacity:1;fill-rule:nonzero;stroke:none"
             id="path416249"
             inkscape:connector-curvature="0" />
        </g>
      </g>
    </g>
    <g
       transform="matrix(0.35277777,0,0,-0.35277777,-145.52567,424.80912)"
       id="g416251"
       inkscape:export-xdpi="381.66052"
       inkscape:export-ydpi="381.66052">
      <g
         id="g416253">
        <g
           id="g416259">
          <g
             id="g416261">
            <path
               d="m 667.94,809.02 c 0.077,-0.085 0.17,-0.14 0.244,-0.225 v 0 c 0.671,-0.761 1.207,-1.639 1.678,-2.569 v 0 l -0.828,11.45 z"
               style="fill:url(#linearGradient416267);stroke:none"
               id="path416269"
               inkscape:connector-curvature="0" />
          </g>
        </g>
      </g>
    </g>
    <g
       id="g416279"
       transform="matrix(0.35277777,0,0,-0.35277777,90.786857,140.3903)"
       inkscape:export-xdpi="381.66052"
       inkscape:export-ydpi="381.66052">
      <path
         d="m 0,0 c 1.111,-2.201 1.699,-4.841 1.699,-7.979 0,-2.038 -0.262,-3.85 -0.726,-5.487 l 0.097,-1.362 16.436,18.587 -18.334,7.69 z"
         style="fill:#803e95;fill-opacity:1;fill-rule:nonzero;stroke:none"
         id="path416281"
         inkscape:connector-curvature="0" />
    </g>
    <g
       id="g416283"
       transform="matrix(0.35277777,0,0,-0.35277777,94.160294,134.19259)"
       inkscape:export-xdpi="381.66052"
       inkscape:export-ydpi="381.66052">
      <path
         d="m 0,0 c -2.135,1.584 -4.426,2.885 -6.881,3.889 l -3.51,-10.008 z"
         style="fill:#8f1e5c;fill-opacity:1;fill-rule:nonzero;stroke:none"
         id="path416285"
         inkscape:connector-curvature="0" />
    </g>
    <g
       id="g416287"
       transform="matrix(0.35277777,0,0,-0.35277777,96.962549,139.06428)"
       inkscape:export-xdpi="381.66052"
       inkscape:export-ydpi="381.66052">
      <path
         d="m 0,0 0.324,4.96 c -1.385,2.171 -3.023,4.223 -4.99,6.117 -1.041,1.002 -2.145,1.893 -3.277,2.733 L -18.334,7.69 Z"
         style="fill:#9a268e;fill-opacity:1;fill-rule:nonzero;stroke:none"
         id="path416289"
         inkscape:connector-curvature="0" />
    </g>
    <g
       id="g416291"
       transform="matrix(0.35277777,0,0,-0.35277777,77.379221,132.16275)"
       inkscape:export-xdpi="381.66052"
       inkscape:export-ydpi="381.66052">
      <path
         d="M 0,0 -5.168,-8.938 0,-7.806 Z"
         style="fill:#f5aa1b;fill-opacity:1;fill-rule:nonzero;stroke:none"
         id="path416293"
         inkscape:connector-curvature="0" />
    </g>
  </g>
</svg>
